<svg width="18" height="17" viewBox="0 0 18 17" fill="none" xmlns="http://www.w3.org/2000/svg">
<path fill-rule="evenodd" clip-rule="evenodd" d="M3.70007 0.863647C2.04322 0.863647 0.700073 2.20679 0.700073 3.86365V13.1364C0.700073 14.7932 2.04322 16.1364 3.70007 16.1364H14.5C16.1569 16.1364 17.5 14.7932 17.5 13.1364V3.86365C17.5 2.20679 16.1569 0.863647 14.5 0.863647H3.70007ZM11.1 2.49963C9.99547 2.49963 9.10004 3.39506 9.10004 4.49963V12.7178C9.10004 13.8224 9.99547 14.7178 11.1 14.7178H15.1946C16.2991 14.7178 17.1946 13.8224 17.1946 12.7178V4.49963C17.1946 3.39506 16.2991 2.49963 15.1946 2.49963H11.1Z" fill="#676E85"/>
</svg>
